<?xml version="1.0" standalone="no"?>
<!DOCTYPE svg PUBLIC "-//W3C//DTD SVG 20010904//EN"
 "http://www.w3.org/TR/2001/REC-SVG-20010904/DTD/svg10.dtd">
<svg version="1.0" xmlns="http://www.w3.org/2000/svg"
 width="1600.000000pt" height="1200.000000pt" viewBox="0 0 1600.000000 1200.000000"
 preserveAspectRatio="xMidYMid meet">

<g transform="translate(0.000000,1200.000000) scale(0.100000,-0.100000)"
fill="#000000" stroke="none">
<path d="M7864 8976 c-143 -77 -298 -198 -459 -360 -380 -381 -601 -851 -654
-1391 -9 -90 -6 -416 4 -530 14 -151 18 -188 36 -314 11 -74 16 -138 12 -141
-5 -4 -45 -33 -91 -65 -101 -72 -251 -224 -319 -325 -277 -412 -296 -922 -54
-1502 36 -85 44 -95 88 -104 48 -10 77 25 108 131 132 444 332 745 570 856
110 51 101 54 200 -61 l87 -101 -10 -87 c-13 -105 -13 -390 -1 -487 17 -142
21 -162 44 -275 65 -304 216 -645 396 -890 26 -36 55 -75 64 -87 28 -40 51
-29 112 54 231 313 387 688 448 1078 22 141 31 463 16 591 l-11 96 56 67 c141
166 138 165 248 136 232 -60 432 -371 555 -860 38 -149 63 -176 135 -144 53
25 171 365 210 608 20 125 20 351 0 469 -59 349 -267 669 -561 864 -34 23 -60
44 -58 48 3 6 28 176 40 277 18 152 23 265 21 498 -3 212 -7 282 -24 380 -83
464 -282 850 -616 1194 -172 176 -351 318 -492 389 l-40 20 -60 -32z m788
-715 c11 -2 95 -136 147 -233 96 -182 194 -473 216 -643 3 -27 10 -77 15 -110
11 -76 10 -471 -1 -590 -4 -49 -10 -117 -14 -150 -20 -213 -96 -559 -162 -734
-56 -150 -158 -346 -222 -428 l-26 -33 -277 0 -278 0 0 360 c0 411 1 408 -76
441 -36 16 -50 18 -82 10 -46 -13 -79 -46 -92 -92 -6 -19 -10 -184 -10 -376
l0 -343 -275 0 -274 0 -52 73 c-258 365 -412 1078 -380 1764 16 332 130 686
325 1000 l54 88 729 -1 c400 -1 731 -2 735 -3z m-862 -3433 c0 -164 3 -198 18
-227 47 -93 164 -103 224 -18 20 28 21 42 21 233 l0 204 169 0 c126 0 170 -3
173 -12 13 -43 21 -350 11 -433 -2 -16 -7 -59 -10 -95 -4 -36 -8 -76 -11 -90
-3 -14 -7 -38 -10 -55 -6 -36 -10 -54 -25 -120 -6 -27 -13 -58 -15 -67 -12
-59 -69 -224 -101 -295 -8 -17 -14 -34 -14 -37 0 -13 -100 -214 -125 -249 -14
-21 -25 -40 -25 -43 0 -4 -18 -32 -118 -180 -12 -19 -25 -34 -28 -34 -33 0
-266 392 -309 520 -3 9 -18 45 -35 85 -31 72 -89 274 -104 365 -2 14 -7 36
-10 50 -3 14 -8 45 -11 70 -2 25 -8 70 -12 100 -9 70 -9 456 0 493 l7 27 170
0 170 0 0 -192z"/>
<path d="M7850 7889 c-260 -42 -446 -296 -401 -548 71 -396 544 -542 822 -254
87 89 129 198 129 328 -1 128 -39 230 -122 320 -109 120 -273 179 -428 154z
m251 -97 c81 -39 158 -117 201 -202 31 -62 33 -71 33 -175 0 -105 -2 -113 -34
-177 -41 -83 -128 -168 -208 -206 -52 -24 -69 -27 -168 -27 -99 0 -116 3 -169
28 -141 66 -228 184 -250 343 -15 105 40 252 125 335 92 90 174 120 310 116
83 -3 104 -8 160 -35z"/>
<path d="M7863 7720 c-93 -19 -177 -85 -223 -176 -35 -70 -35 -189 0 -258 67
-132 204 -203 337 -176 81 17 123 41 176 100 170 189 53 484 -203 513 -25 2
-64 1 -87 -3z"/>
<path d="M9167 3822 c-16 -17 -15 -20 18 -52 l35 -34 -42 -43 -42 -43 20 -20
20 -21 43 42 42 42 35 -34 35 -34 20 24 20 24 -30 31 -31 32 32 31 c20 20 29
37 25 47 -12 31 -37 30 -73 -5 l-34 -33 -33 32 c-39 37 -39 38 -60 14z"/>
<path d="M6182 3248 c-19 -19 -15 -29 25 -70 l37 -38 -32 -33 -32 -33 20 -19
c20 -18 21 -18 48 8 35 34 42 34 77 -3 l29 -30 23 22 23 22 -32 33 -32 33 39
40 c38 39 38 40 20 60 -18 20 -18 20 -56 -15 -22 -19 -43 -35 -47 -35 -4 0
-23 16 -42 35 -36 38 -49 42 -68 23z"/>
</g>
</svg>
