<?xml version="1.0" encoding="UTF-8"?>
<svg xmlns="http://www.w3.org/2000/svg" xmlns:xlink="http://www.w3.org/1999/xlink" width="1440px" height="1080px" viewBox="0 0 1440 1080" version="1.1">
<g id="surface1">
<path style=" stroke:none;fill-rule:nonzero;fill:rgb(0%,0%,0%);fill-opacity:1;" d="M 707.761719 272.160156 C 694.890625 279.089844 680.941406 289.980469 666.449219 304.558594 C 632.25 338.851562 612.359375 381.148438 607.589844 429.75 C 606.78125 437.851562 607.050781 467.191406 607.949219 477.449219 C 609.210938 491.039062 609.570312 494.371094 611.191406 505.710938 C 612.179688 512.371094 612.628906 518.128906 612.269531 518.398438 C 611.820312 518.761719 608.21875 521.371094 604.078125 524.25 C 594.988281 530.730469 581.488281 544.410156 575.371094 553.5 C 550.441406 590.578125 548.730469 636.480469 570.511719 688.679688 C 573.75 696.328125 574.46875 697.230469 578.429688 698.039062 C 582.75 698.941406 585.359375 695.789062 588.148438 686.25 C 600.03125 646.289062 618.03125 619.199219 639.449219 609.210938 C 649.351562 604.621094 648.539062 604.351562 657.449219 614.699219 L 665.28125 623.789062 L 664.378906 631.621094 C 663.210938 641.070312 663.210938 666.71875 664.289062 675.449219 C 665.820312 688.230469 666.179688 690.03125 668.25 700.199219 C 674.101562 727.558594 687.691406 758.25 703.890625 780.300781 C 706.230469 783.539062 708.839844 787.050781 709.648438 788.128906 C 712.171875 791.730469 714.238281 790.738281 719.730469 783.269531 C 740.519531 755.101562 754.558594 721.351562 760.050781 686.25 C 762.03125 673.558594 762.839844 644.578125 761.488281 633.058594 L 760.5 624.421875 L 765.539062 618.390625 C 778.230469 603.449219 777.960938 603.539062 787.859375 606.148438 C 808.738281 611.550781 826.738281 639.539062 837.808594 683.550781 C 841.230469 696.960938 843.480469 699.390625 849.960938 696.511719 C 854.730469 694.261719 865.351562 663.660156 868.859375 641.789062 C 870.660156 630.539062 870.660156 610.199219 868.859375 599.578125 C 863.550781 568.171875 844.828125 539.371094 818.371094 521.820312 C 815.308594 519.75 812.96875 517.859375 813.148438 517.5 C 813.421875 516.960938 815.671875 501.660156 816.75 492.570312 C 818.371094 478.890625 818.820312 468.71875 818.640625 447.75 C 818.371094 428.671875 818.011719 422.371094 816.480469 413.550781 C 809.011719 371.789062 791.101562 337.050781 761.039062 306.089844 C 745.558594 290.25 729.449219 277.46875 716.761719 271.078125 L 713.160156 269.28125 Z M 778.679688 336.511719 C 779.671875 336.691406 787.230469 348.75 791.910156 357.480469 C 800.550781 373.859375 809.371094 400.050781 811.351562 415.351562 C 811.621094 417.78125 812.25 422.28125 812.699219 425.25 C 813.691406 432.089844 813.601562 467.640625 812.609375 478.351562 C 812.25 482.761719 811.710938 488.878906 811.351562 491.851562 C 809.550781 511.019531 802.710938 542.160156 796.769531 557.910156 C 791.730469 571.410156 782.550781 589.050781 776.789062 596.429688 L 774.449219 599.398438 L 724.5 599.398438 L 724.5 567 C 724.5 530.011719 724.589844 530.28125 717.660156 527.308594 C 714.421875 525.871094 713.160156 525.691406 710.28125 526.410156 C 706.140625 527.578125 703.171875 530.550781 702 534.691406 C 701.460938 536.398438 701.101562 551.25 701.101562 568.53125 L 701.101562 599.398438 L 651.691406 599.398438 L 647.011719 592.828125 C 623.789062 559.980469 609.929688 495.808594 612.808594 434.070312 C 614.25 404.191406 624.511719 372.328125 642.058594 344.070312 L 646.921875 336.148438 L 712.53125 336.238281 C 748.53125 336.328125 778.320312 336.421875 778.679688 336.511719 Z M 701.101562 645.480469 C 701.101562 660.238281 701.371094 663.300781 702.71875 665.910156 C 706.949219 674.28125 717.480469 675.179688 722.878906 667.53125 C 724.679688 665.011719 724.769531 663.75 724.769531 646.558594 L 724.769531 628.199219 L 739.980469 628.199219 C 751.320312 628.199219 755.28125 628.46875 755.550781 629.28125 C 756.71875 633.148438 757.441406 660.78125 756.539062 668.25 C 756.359375 669.691406 755.910156 673.558594 755.640625 676.800781 C 755.28125 680.039062 754.921875 683.640625 754.648438 684.898438 C 754.378906 686.160156 754.019531 688.320312 753.75 689.851562 C 753.210938 693.089844 752.851562 694.710938 751.5 700.648438 C 750.960938 703.078125 750.328125 705.871094 750.148438 706.679688 C 749.070312 711.988281 743.941406 726.839844 741.058594 733.230469 C 740.339844 734.761719 739.800781 736.289062 739.800781 736.558594 C 739.800781 737.730469 730.800781 755.820312 728.550781 758.96875 C 727.289062 760.859375 726.300781 762.570312 726.300781 762.839844 C 726.300781 763.199219 724.679688 765.71875 715.679688 779.039062 C 714.601562 780.75 713.429688 782.101562 713.160156 782.101562 C 710.191406 782.101562 689.21875 746.820312 685.351562 735.300781 C 685.078125 734.488281 683.730469 731.25 682.199219 727.648438 C 679.410156 721.171875 674.191406 702.988281 672.839844 694.800781 C 672.660156 693.539062 672.210938 691.558594 671.941406 690.300781 C 671.671875 689.039062 671.21875 686.25 670.949219 684 C 670.769531 681.75 670.230469 677.699219 669.871094 675 C 669.058594 668.699219 669.058594 633.960938 669.871094 630.628906 L 670.5 628.199219 L 701.101562 628.199219 Z M 701.101562 645.480469 "/>
<path style=" stroke:none;fill-rule:nonzero;fill:rgb(0%,0%,0%);fill-opacity:1;" d="M 706.5 369.988281 C 683.101562 373.769531 666.359375 396.628906 670.410156 419.308594 C 676.800781 454.949219 719.371094 468.089844 744.390625 442.171875 C 752.21875 434.160156 756 424.351562 756 412.648438 C 755.910156 401.128906 752.488281 391.949219 745.019531 383.851562 C 735.210938 373.050781 720.449219 367.738281 706.5 369.988281 Z M 729.089844 378.71875 C 736.378906 382.230469 743.308594 389.25 747.179688 396.898438 C 749.96875 402.480469 750.148438 403.289062 750.148438 412.648438 C 750.148438 422.101562 749.96875 422.820312 747.089844 428.578125 C 743.398438 436.050781 735.570312 443.699219 728.371094 447.121094 C 723.691406 449.28125 722.160156 449.550781 713.25 449.550781 C 704.339844 449.550781 702.808594 449.28125 698.039062 447.03125 C 685.351562 441.089844 677.519531 430.46875 675.539062 416.160156 C 674.191406 406.710938 679.140625 393.480469 686.789062 386.011719 C 695.070312 377.910156 702.449219 375.210938 714.691406 375.570312 C 722.160156 375.839844 724.050781 376.289062 729.089844 378.71875 Z M 729.089844 378.71875 "/>
<path style=" stroke:none;fill-rule:nonzero;fill:rgb(0%,0%,0%);fill-opacity:1;" d="M 707.671875 385.199219 C 699.300781 386.910156 691.738281 392.851562 687.601562 401.039062 C 684.449219 407.339844 684.449219 418.050781 687.601562 424.261719 C 693.628906 436.140625 705.960938 442.53125 717.929688 440.101562 C 725.21875 438.570312 729 436.410156 733.769531 431.101562 C 749.070312 414.089844 738.539062 387.539062 715.5 384.929688 C 713.25 384.75 709.738281 384.839844 707.671875 385.199219 Z M 707.671875 385.199219 "/>
<path style=" stroke:none;fill-rule:nonzero;fill:rgb(0%,0%,0%);fill-opacity:1;" d="M 825.03125 736.019531 C 823.589844 737.550781 823.679688 737.820312 826.648438 740.699219 L 829.800781 743.761719 L 826.019531 747.628906 L 822.238281 751.5 L 824.039062 753.300781 L 825.839844 755.191406 L 829.710938 751.410156 L 833.488281 747.628906 L 836.640625 750.691406 L 839.789062 753.75 L 843.390625 749.429688 L 840.691406 746.640625 L 837.898438 743.761719 L 840.78125 740.96875 C 842.578125 739.171875 843.390625 737.640625 843.03125 736.738281 C 841.949219 733.949219 839.699219 734.039062 836.460938 737.191406 L 833.398438 740.160156 L 830.429688 737.28125 C 826.921875 733.949219 826.921875 733.859375 825.03125 736.019531 Z M 825.03125 736.019531 "/>
<path style=" stroke:none;fill-rule:nonzero;fill:rgb(0%,0%,0%);fill-opacity:1;" d="M 556.378906 787.679688 C 554.671875 789.390625 555.03125 790.289062 558.628906 793.980469 L 561.960938 797.398438 L 559.078125 800.371094 L 556.199219 803.339844 L 558 805.050781 C 559.800781 806.671875 559.890625 806.671875 562.320312 804.328125 C 565.46875 801.269531 566.101562 801.269531 569.25 804.601562 L 571.859375 807.300781 L 576 803.339844 L 573.121094 800.371094 L 570.238281 797.398438 L 573.75 793.800781 C 577.171875 790.289062 577.171875 790.199219 575.550781 788.398438 C 573.929688 786.601562 573.929688 786.601562 570.511719 789.75 C 568.53125 791.460938 566.640625 792.898438 566.28125 792.898438 C 565.921875 792.898438 564.210938 791.460938 562.5 789.75 C 559.261719 786.328125 558.089844 785.96875 556.378906 787.679688 Z M 556.378906 787.679688 "/>
</g>
</svg>
